<svg width="102" height="38" viewBox="0 0 102 38" fill="none" xmlns="http://www.w3.org/2000/svg">
    <path
        d="M9.216 7.568C12.5227 7.568 15.0613 8.15467 16.832 9.328C18.6027 10.48 19.488 12.3787 19.488 15.024C19.488 17.6907 18.592 19.6213 16.8 20.816C15.008 21.9893 12.448 22.576 9.12 22.576H7.552V30H2.56V8.144C3.648 7.93067 4.8 7.78133 6.016 7.696C7.232 7.61067 8.29867 7.568 9.216 7.568ZM9.536 11.824C9.17333 11.824 8.81067 11.8347 8.448 11.856C8.10667 11.8773 7.808 11.8987 7.552 11.92V18.32H9.12C10.848 18.32 12.1493 18.0853 13.024 17.616C13.8987 17.1467 14.336 16.272 14.336 14.992C14.336 14.3733 14.2187 13.8613 13.984 13.456C13.7707 13.0507 13.4507 12.7307 13.024 12.496C12.6187 12.24 12.1173 12.0693 11.52 11.984C10.9227 11.8773 10.2613 11.824 9.536 11.824Z"
        fill="#3231C3" />
    <path
        d="M26.031 12.878C25.8577 12.8347 25.654 12.7913 25.42 12.748C25.186 12.696 24.9347 12.67 24.666 12.67C24.5447 12.67 24.3973 12.683 24.224 12.709C24.0593 12.7263 23.9337 12.748 23.847 12.774V18H21.91V11.526C22.2567 11.4047 22.664 11.292 23.132 11.188C23.6087 11.0753 24.1373 11.019 24.718 11.019C24.822 11.019 24.9477 11.0277 25.095 11.045C25.2423 11.0537 25.3897 11.071 25.537 11.097C25.6843 11.1143 25.8317 11.1403 25.979 11.175C26.1263 11.201 26.252 11.2357 26.356 11.279L26.031 12.878ZM33.6634 14.568C33.6634 15.1053 33.5854 15.5993 33.4294 16.05C33.2734 16.492 33.0481 16.8733 32.7534 17.194C32.4588 17.506 32.1034 17.7487 31.6874 17.922C31.2801 18.0953 30.8208 18.182 30.3094 18.182C29.8068 18.182 29.3474 18.0953 28.9314 17.922C28.5241 17.7487 28.1731 17.506 27.8784 17.194C27.5838 16.8733 27.3541 16.492 27.1894 16.05C27.0248 15.5993 26.9424 15.1053 26.9424 14.568C26.9424 14.0307 27.0248 13.541 27.1894 13.099C27.3628 12.657 27.5968 12.28 27.8914 11.968C28.1948 11.656 28.5501 11.4133 28.9574 11.24C29.3734 11.0667 29.8241 10.98 30.3094 10.98C30.8034 10.98 31.2541 11.0667 31.6614 11.24C32.0774 11.4133 32.4328 11.656 32.7274 11.968C33.0221 12.28 33.2518 12.657 33.4164 13.099C33.5811 13.541 33.6634 14.0307 33.6634 14.568ZM31.6874 14.568C31.6874 13.97 31.5661 13.502 31.3234 13.164C31.0894 12.8173 30.7514 12.644 30.3094 12.644C29.8674 12.644 29.5251 12.8173 29.2824 13.164C29.0398 13.502 28.9184 13.97 28.9184 14.568C28.9184 15.166 29.0398 15.6427 29.2824 15.998C29.5251 16.3447 29.8674 16.518 30.3094 16.518C30.7514 16.518 31.0894 16.3447 31.3234 15.998C31.5661 15.6427 31.6874 15.166 31.6874 14.568ZM34.5269 20.405C34.4056 20.405 34.2279 20.392 33.9939 20.366C33.7512 20.34 33.5259 20.2923 33.3179 20.223L33.5779 18.65C33.7079 18.6933 33.8292 18.7237 33.9419 18.741C34.0459 18.7583 34.1802 18.767 34.3449 18.767C34.6482 18.767 34.8606 18.676 34.9819 18.494C35.1032 18.312 35.1639 18.0477 35.1639 17.701V11.162H37.1009V17.753C37.1009 18.6543 36.8799 19.3217 36.4379 19.755C35.9959 20.1883 35.3589 20.405 34.5269 20.405ZM37.2829 9.186C37.2829 9.54133 37.1659 9.823 36.9319 10.031C36.7066 10.2303 36.4379 10.33 36.1259 10.33C35.8139 10.33 35.5409 10.2303 35.3069 10.031C35.0816 9.823 34.9689 9.54133 34.9689 9.186C34.9689 8.83067 35.0816 8.55333 35.3069 8.354C35.5409 8.146 35.8139 8.042 36.1259 8.042C36.4379 8.042 36.7066 8.146 36.9319 8.354C37.1659 8.55333 37.2829 8.83067 37.2829 9.186ZM38.5967 14.633C38.5967 14.0263 38.6877 13.4977 38.8697 13.047C39.0604 12.5877 39.3074 12.2063 39.6107 11.903C39.9141 11.5997 40.2607 11.37 40.6507 11.214C41.0494 11.058 41.4567 10.98 41.8727 10.98C42.8434 10.98 43.6104 11.279 44.1737 11.877C44.7371 12.4663 45.0187 13.3373 45.0187 14.49C45.0187 14.6027 45.0144 14.7283 45.0057 14.867C44.9971 14.997 44.9884 15.114 44.9797 15.218H40.5857C40.6291 15.6167 40.8154 15.933 41.1447 16.167C41.4741 16.401 41.9161 16.518 42.4707 16.518C42.8261 16.518 43.1727 16.4877 43.5107 16.427C43.8574 16.3577 44.1391 16.2753 44.3557 16.18L44.6157 17.753C44.5117 17.805 44.3731 17.857 44.1997 17.909C44.0264 17.961 43.8314 18.0043 43.6147 18.039C43.4067 18.0823 43.1814 18.117 42.9387 18.143C42.6961 18.169 42.4534 18.182 42.2107 18.182C41.5954 18.182 41.0581 18.091 40.5987 17.909C40.1481 17.727 39.7711 17.48 39.4677 17.168C39.1731 16.8473 38.9521 16.4703 38.8047 16.037C38.6661 15.6037 38.5967 15.1357 38.5967 14.633ZM43.1467 13.892C43.1381 13.7273 43.1077 13.567 43.0557 13.411C43.0124 13.255 42.9387 13.1163 42.8347 12.995C42.7394 12.8737 42.6137 12.774 42.4577 12.696C42.3104 12.618 42.1241 12.579 41.8987 12.579C41.6821 12.579 41.4957 12.618 41.3397 12.696C41.1837 12.7653 41.0537 12.8607 40.9497 12.982C40.8457 13.1033 40.7634 13.2463 40.7027 13.411C40.6507 13.567 40.6117 13.7273 40.5857 13.892H43.1467ZM46.1885 14.581C46.1885 14.087 46.2665 13.6233 46.4225 13.19C46.5872 12.748 46.8212 12.3667 47.1245 12.046C47.4278 11.7167 47.7962 11.4567 48.2295 11.266C48.6628 11.0753 49.1568 10.98 49.7115 10.98C50.0755 10.98 50.4092 11.0147 50.7125 11.084C51.0158 11.1447 51.3105 11.2357 51.5965 11.357L51.1935 12.904C51.0115 12.8347 50.8122 12.774 50.5955 12.722C50.3788 12.67 50.1362 12.644 49.8675 12.644C49.2955 12.644 48.8665 12.8217 48.5805 13.177C48.3032 13.5323 48.1645 14.0003 48.1645 14.581C48.1645 15.1963 48.2945 15.673 48.5545 16.011C48.8232 16.349 49.2868 16.518 49.9455 16.518C50.1795 16.518 50.4308 16.4963 50.6995 16.453C50.9682 16.4097 51.2152 16.3403 51.4405 16.245L51.7135 17.831C51.4882 17.9263 51.2065 18.0087 50.8685 18.078C50.5305 18.1473 50.1578 18.182 49.7505 18.182C49.1265 18.182 48.5892 18.091 48.1385 17.909C47.6878 17.7183 47.3152 17.4627 47.0205 17.142C46.7345 16.8213 46.5222 16.4443 46.3835 16.011C46.2535 15.569 46.1885 15.0923 46.1885 14.581ZM52.9485 9.459L54.8855 9.147V11.162H57.2125V12.774H54.8855V15.179C54.8855 15.5863 54.9548 15.9113 55.0935 16.154C55.2408 16.3967 55.5312 16.518 55.9645 16.518C56.1725 16.518 56.3848 16.5007 56.6015 16.466C56.8268 16.4227 57.0305 16.3663 57.2125 16.297L57.4855 17.805C57.2515 17.9003 56.9915 17.9827 56.7055 18.052C56.4195 18.1213 56.0685 18.156 55.6525 18.156C55.1238 18.156 54.6862 18.0867 54.3395 17.948C53.9928 17.8007 53.7155 17.6013 53.5075 17.35C53.2995 17.09 53.1522 16.778 53.0655 16.414C52.9875 16.05 52.9485 15.647 52.9485 15.205V9.459Z"
        fill="black" />
    <path
        d="M16.36 23.415C16.7227 23.3243 17.1987 23.228 17.788 23.126C18.3887 23.024 19.08 22.973 19.862 22.973C20.4287 22.973 20.9047 23.0523 21.29 23.211C21.6753 23.3583 21.9983 23.5793 22.259 23.874C22.3383 23.8173 22.463 23.738 22.633 23.636C22.803 23.534 23.0127 23.4377 23.262 23.347C23.5113 23.245 23.789 23.16 24.095 23.092C24.401 23.0127 24.7297 22.973 25.081 22.973C25.761 22.973 26.3163 23.075 26.747 23.279C27.1777 23.4717 27.512 23.7493 27.75 24.112C27.9993 24.4747 28.1637 24.9053 28.243 25.404C28.3337 25.9027 28.379 26.4467 28.379 27.036V32H26.798V27.376C26.798 26.8547 26.7697 26.407 26.713 26.033C26.6677 25.659 26.5713 25.3473 26.424 25.098C26.288 24.8487 26.0953 24.6673 25.846 24.554C25.608 24.4293 25.2963 24.367 24.911 24.367C24.3783 24.367 23.9363 24.4407 23.585 24.588C23.245 24.724 23.0127 24.8487 22.888 24.962C22.9787 25.2567 23.0467 25.5797 23.092 25.931C23.1373 26.2823 23.16 26.6507 23.16 27.036V32H21.579V27.376C21.579 26.8547 21.5507 26.407 21.494 26.033C21.4373 25.659 21.3353 25.3473 21.188 25.098C21.052 24.8487 20.8593 24.6673 20.61 24.554C20.372 24.4293 20.066 24.367 19.692 24.367C19.5333 24.367 19.3633 24.3727 19.182 24.384C19.0007 24.3953 18.825 24.4123 18.655 24.435C18.4963 24.4463 18.349 24.4633 18.213 24.486C18.077 24.5087 17.9863 24.5257 17.941 24.537V32H16.36V23.415ZM33.9946 30.861C34.3686 30.861 34.6972 30.8553 34.9806 30.844C35.2752 30.8213 35.5189 30.7873 35.7116 30.742V28.107C35.5982 28.0503 35.4112 28.005 35.1506 27.971C34.9012 27.9257 34.5952 27.903 34.2326 27.903C33.9946 27.903 33.7396 27.92 33.4676 27.954C33.2069 27.988 32.9632 28.0617 32.7366 28.175C32.5212 28.277 32.3399 28.4243 32.1926 28.617C32.0452 28.7983 31.9716 29.042 31.9716 29.348C31.9716 29.9147 32.1529 30.3113 32.5156 30.538C32.8782 30.7533 33.3712 30.861 33.9946 30.861ZM33.8586 22.939C34.4932 22.939 35.0259 23.024 35.4566 23.194C35.8986 23.3527 36.2499 23.585 36.5106 23.891C36.7826 24.1857 36.9752 24.5427 37.0886 24.962C37.2019 25.37 37.2586 25.8233 37.2586 26.322V31.847C37.1226 31.8697 36.9299 31.9037 36.6806 31.949C36.4426 31.983 36.1706 32.017 35.8646 32.051C35.5586 32.085 35.2242 32.1133 34.8616 32.136C34.5102 32.17 34.1589 32.187 33.8076 32.187C33.3089 32.187 32.8499 32.136 32.4306 32.034C32.0112 31.932 31.6486 31.7733 31.3426 31.558C31.0366 31.3313 30.7986 31.0367 30.6286 30.674C30.4586 30.3113 30.3736 29.875 30.3736 29.365C30.3736 28.8777 30.4699 28.4583 30.6626 28.107C30.8666 27.7557 31.1386 27.4723 31.4786 27.257C31.8186 27.0417 32.2152 26.883 32.6686 26.781C33.1219 26.679 33.5979 26.628 34.0966 26.628C34.2552 26.628 34.4196 26.6393 34.5896 26.662C34.7596 26.6733 34.9182 26.696 35.0656 26.73C35.2242 26.7527 35.3602 26.7753 35.4736 26.798C35.5869 26.8207 35.6662 26.8377 35.7116 26.849V26.407C35.7116 26.1463 35.6832 25.8913 35.6266 25.642C35.5699 25.3813 35.4679 25.1547 35.3206 24.962C35.1732 24.758 34.9692 24.5993 34.7086 24.486C34.4592 24.3613 34.1306 24.299 33.7226 24.299C33.2012 24.299 32.7422 24.3387 32.3456 24.418C31.9602 24.486 31.6712 24.5597 31.4786 24.639L31.2916 23.33C31.4956 23.2393 31.8356 23.1543 32.3116 23.075C32.7876 22.9843 33.3032 22.939 33.8586 22.939ZM39.8844 23.415C40.2471 23.3243 40.7287 23.228 41.3294 23.126C41.9301 23.024 42.6214 22.973 43.4034 22.973C44.1061 22.973 44.6897 23.075 45.1544 23.279C45.6191 23.4717 45.9874 23.7493 46.2594 24.112C46.5427 24.4633 46.7411 24.8883 46.8544 25.387C46.9677 25.8857 47.0244 26.4353 47.0244 27.036V32H45.4434V27.376C45.4434 26.832 45.4037 26.3673 45.3244 25.982C45.2564 25.5967 45.1374 25.285 44.9674 25.047C44.7974 24.809 44.5707 24.639 44.2874 24.537C44.0041 24.4237 43.6527 24.367 43.2334 24.367C43.0634 24.367 42.8877 24.3727 42.7064 24.384C42.5251 24.3953 42.3494 24.4123 42.1794 24.435C42.0207 24.4463 41.8734 24.4633 41.7374 24.486C41.6127 24.5087 41.5221 24.5257 41.4654 24.537V32H39.8844V23.415ZM52.6381 30.861C53.0121 30.861 53.3408 30.8553 53.6241 30.844C53.9188 30.8213 54.1625 30.7873 54.3551 30.742V28.107C54.2418 28.0503 54.0548 28.005 53.7941 27.971C53.5448 27.9257 53.2388 27.903 52.8761 27.903C52.6381 27.903 52.3831 27.92 52.1111 27.954C51.8505 27.988 51.6068 28.0617 51.3801 28.175C51.1648 28.277 50.9835 28.4243 50.8361 28.617C50.6888 28.7983 50.6151 29.042 50.6151 29.348C50.6151 29.9147 50.7965 30.3113 51.1591 30.538C51.5218 30.7533 52.0148 30.861 52.6381 30.861ZM52.5021 22.939C53.1368 22.939 53.6695 23.024 54.1001 23.194C54.5421 23.3527 54.8935 23.585 55.1541 23.891C55.4261 24.1857 55.6188 24.5427 55.7321 24.962C55.8455 25.37 55.9021 25.8233 55.9021 26.322V31.847C55.7661 31.8697 55.5735 31.9037 55.3241 31.949C55.0861 31.983 54.8141 32.017 54.5081 32.051C54.2021 32.085 53.8678 32.1133 53.5051 32.136C53.1538 32.17 52.8025 32.187 52.4511 32.187C51.9525 32.187 51.4935 32.136 51.0741 32.034C50.6548 31.932 50.2921 31.7733 49.9861 31.558C49.6801 31.3313 49.4421 31.0367 49.2721 30.674C49.1021 30.3113 49.0171 29.875 49.0171 29.365C49.0171 28.8777 49.1135 28.4583 49.3061 28.107C49.5101 27.7557 49.7821 27.4723 50.1221 27.257C50.4621 27.0417 50.8588 26.883 51.3121 26.781C51.7655 26.679 52.2415 26.628 52.7401 26.628C52.8988 26.628 53.0631 26.6393 53.2331 26.662C53.4031 26.6733 53.5618 26.696 53.7091 26.73C53.8678 26.7527 54.0038 26.7753 54.1171 26.798C54.2305 26.8207 54.3098 26.8377 54.3551 26.849V26.407C54.3551 26.1463 54.3268 25.8913 54.2701 25.642C54.2135 25.3813 54.1115 25.1547 53.9641 24.962C53.8168 24.758 53.6128 24.5993 53.3521 24.486C53.1028 24.3613 52.7741 24.299 52.3661 24.299C51.8448 24.299 51.3858 24.3387 50.9891 24.418C50.6038 24.486 50.3148 24.5597 50.1221 24.639L49.9351 23.33C50.1391 23.2393 50.4791 23.1543 50.9551 23.075C51.4311 22.9843 51.9468 22.939 52.5021 22.939ZM64.07 31.116C63.934 31.2067 63.6676 31.3257 63.271 31.473C62.8856 31.609 62.4323 31.677 61.911 31.677C61.3783 31.677 60.874 31.592 60.398 31.422C59.9333 31.252 59.5253 30.9913 59.174 30.64C58.8226 30.2773 58.545 29.8297 58.341 29.297C58.137 28.7643 58.035 28.1297 58.035 27.393C58.035 26.747 58.1313 26.1577 58.324 25.625C58.5166 25.081 58.7943 24.6163 59.157 24.231C59.531 23.8343 59.9843 23.5283 60.517 23.313C61.0496 23.0863 61.6503 22.973 62.319 22.973C63.0556 22.973 63.696 23.0297 64.24 23.143C64.7953 23.245 65.26 23.3413 65.634 23.432V31.32C65.634 32.68 65.2826 33.666 64.58 34.278C63.8773 34.89 62.812 35.196 61.384 35.196C60.8286 35.196 60.3016 35.1507 59.803 35.06C59.3156 34.9693 58.8906 34.8617 58.528 34.737L58.817 33.36C59.1343 33.4847 59.5196 33.5923 59.973 33.683C60.4376 33.785 60.9193 33.836 61.418 33.836C62.3586 33.836 63.033 33.649 63.441 33.275C63.8603 32.901 64.07 32.306 64.07 31.49V31.116ZM64.053 24.554C63.8943 24.5087 63.679 24.469 63.407 24.435C63.1463 24.3897 62.7893 24.367 62.336 24.367C61.486 24.367 60.8286 24.6447 60.364 25.2C59.9106 25.7553 59.684 26.492 59.684 27.41C59.684 27.92 59.7463 28.3563 59.871 28.719C60.007 29.0817 60.1826 29.382 60.398 29.62C60.6246 29.858 60.8796 30.0337 61.163 30.147C61.4576 30.2603 61.758 30.317 62.064 30.317C62.4833 30.317 62.8686 30.2603 63.22 30.147C63.5713 30.0223 63.849 29.8807 64.053 29.722V24.554ZM67.8631 27.597C67.8631 26.815 67.9764 26.135 68.2031 25.557C68.4298 24.9677 68.7301 24.4803 69.1041 24.095C69.4781 23.7097 69.9088 23.4207 70.3961 23.228C70.8834 23.0353 71.3821 22.939 71.8921 22.939C73.0821 22.939 73.9944 23.313 74.6291 24.061C75.2638 24.7977 75.5811 25.9253 75.5811 27.444C75.5811 27.512 75.5811 27.6027 75.5811 27.716C75.5811 27.818 75.5754 27.9143 75.5641 28.005H69.5121C69.5801 28.923 69.8464 29.62 70.3111 30.096C70.7758 30.572 71.5011 30.81 72.4871 30.81C73.0424 30.81 73.5071 30.7647 73.8811 30.674C74.2664 30.572 74.5554 30.4757 74.7481 30.385L74.9691 31.711C74.7764 31.813 74.4364 31.9207 73.9491 32.034C73.4731 32.1473 72.9291 32.204 72.3171 32.204C71.5464 32.204 70.8778 32.0907 70.3111 31.864C69.7558 31.626 69.2968 31.303 68.9341 30.895C68.5714 30.487 68.2994 30.0053 68.1181 29.45C67.9481 28.8833 67.8631 28.2657 67.8631 27.597ZM73.9321 26.73C73.9434 26.016 73.7621 25.4323 73.3881 24.979C73.0254 24.5143 72.5211 24.282 71.8751 24.282C71.5124 24.282 71.1894 24.3557 70.9061 24.503C70.6341 24.639 70.4018 24.8203 70.2091 25.047C70.0164 25.2737 69.8634 25.5343 69.7501 25.829C69.6481 26.1237 69.5801 26.424 69.5461 26.73H73.9321ZM81.1162 22.973C81.2522 22.973 81.4052 22.9843 81.5752 23.007C81.7565 23.0183 81.9322 23.041 82.1022 23.075C82.2722 23.0977 82.4252 23.126 82.5612 23.16C82.7085 23.1827 82.8162 23.2053 82.8842 23.228L82.6122 24.605C82.4875 24.5597 82.2779 24.5087 81.9832 24.452C81.6999 24.384 81.3315 24.35 80.8782 24.35C80.5835 24.35 80.2889 24.384 79.9942 24.452C79.7109 24.5087 79.5239 24.5483 79.4332 24.571V32H77.8522V23.534C78.2262 23.398 78.6909 23.2733 79.2462 23.16C79.8015 23.0353 80.4249 22.973 81.1162 22.973Z"
        fill="black" fill-opacity="0.64" />
</svg>
